<?xml version="1.0" standalone="no"?>
<!DOCTYPE svg PUBLIC "-//W3C//DTD SVG 20010904//EN"
 "http://www.w3.org/TR/2001/REC-SVG-20010904/DTD/svg10.dtd">
<svg version="1.0" xmlns="http://www.w3.org/2000/svg"
 width="96.000000pt" height="96.000000pt" viewBox="0 0 96.000000 96.000000"
 preserveAspectRatio="xMidYMid meet">
<metadata>
Created by potrace 1.14, written by Peter Selinger 2001-2017
</metadata>
<g transform="translate(0.000000,96.000000) scale(0.100000,-0.100000)"
fill="#000000" stroke="none">
<path d="M387 870 c-128 -33 -237 -132 -285 -260 -31 -86 -26 -205 14 -290 66
-139 187 -225 332 -237 l72 -6 0 110 c0 118 -6 133 -51 133 -24 0 -27 4 -31
40 l-4 40 43 0 43 0 0 40 0 40 -80 0 -80 0 0 40 c0 37 2 40 28 40 40 0 52 17
52 72 l0 48 54 0 c43 0 58 5 80 25 15 14 26 35 26 49 l0 25 37 -22 c94 -55
157 -157 162 -259 1 -21 67 -92 75 -80 2 4 4 42 2 83 -6 200 -171 365 -372
375 -44 2 -96 -1 -117 -6z m133 -90 c0 -18 -7 -20 -68 -20 -40 0 -73 -5 -80
-12 -7 -7 -12 -34 -12 -60 0 -46 -1 -48 -28 -48 -36 0 -52 -17 -52 -54 l0 -30
-40 39 c-39 38 -39 39 -24 64 51 81 159 139 262 140 36 1 42 -2 42 -19z m-243
-337 c71 -71 83 -87 83 -116 0 -37 37 -87 65 -87 11 0 15 -10 15 -39 l0 -39
-40 9 c-81 18 -167 91 -211 178 -16 33 -23 66 -25 124 -4 92 -13 95 113 -30z"/>
<path d="M600 360 l0 -202 43 41 c23 22 44 41 47 41 3 0 22 -41 44 -90 21 -50
40 -90 43 -90 2 0 22 9 43 20 l40 20 -26 58 c-14 31 -32 72 -40 90 l-14 32 57
0 57 0 -41 38 c-23 20 -89 84 -147 140 l-106 104 0 -202z"/>
</g>
</svg>
